<svg viewBox="0 0 255 64" fill="none" xmlns="http://www.w3.org/2000/svg">
<mask id="mask0_2016_11" style="mask-type:luminance" maskUnits="userSpaceOnUse" x="0" y="0" width="64" height="64">
<path d="M0 20C0 8.95431 8.95431 0 20 0H44C55.0457 0 64 8.95431 64 20V44C64 55.0457 55.0457 64 44 64H20C8.95431 64 0 55.0457 0 44V20Z" fill="white"/>
</mask>
<g mask="url(#mask0_2016_11)">
<path d="M34.6667 29.3333H29.3333C26.3878 29.3333 24 26.9455 24 24V24C24 21.0545 26.3878 18.6667 29.3333 18.6667H34.6667C36.0812 18.6667 37.4377 19.2286 38.4379 20.2288C39.4381 21.2289 40 22.5855 40 24C40 25.4145 39.4381 26.771 38.4379 27.7712C37.4377 28.7714 36.0812 29.3333 34.6667 29.3333Z" fill="#2A4B4F"/>
<path fill-rule="evenodd" clip-rule="evenodd" d="M64 20C64 8.95431 55.0457 0 44 0H20C8.95431 0 0 8.95431 0 20V44C0 55.0457 8.95431 64 20 64H44C55.0457 64 64 55.0457 64 44V20ZM21.3333 13.3333C20.6261 13.3333 19.9478 13.6143 19.4477 14.1144C18.9476 14.6145 18.6667 15.2928 18.6667 16V48C18.6667 48.7072 18.9476 49.3855 19.4477 49.8856C19.9478 50.3857 20.6261 50.6667 21.3333 50.6667C22.0406 50.6667 22.7189 50.3857 23.219 49.8856C23.719 49.3855 24 48.7072 24 48V40.2405C24 37.1622 26.4955 34.6667 29.5738 34.6667V34.6667C31.6851 34.6667 33.6151 35.8595 34.5592 37.7478L40.2813 49.192C40.6008 49.819 41.1551 50.2943 41.8234 50.5143C42.4917 50.7344 43.22 50.6814 43.8494 50.3668C44.4788 50.0523 44.9584 49.5017 45.1837 48.8351C45.409 48.1685 45.3616 47.4399 45.052 46.808L41.8984 40.5009C40.1262 36.9564 42.1062 32.6051 44.0096 29.1292V29.1292C45.2004 26.9547 45.5969 24.4334 45.1309 21.9983C44.6649 19.5633 43.3655 17.3665 41.456 15.7853C39.5464 14.2041 37.1459 13.3371 34.6667 13.3333H21.3333Z" fill="#2A4B4F"/>
</g>
<path d="M73.256 38.6L73.376 33.152L78.68 27.992H84.08L78.2 34.064L75.872 35.936L73.256 38.6ZM69.464 41V23.192H74.024V41H69.464ZM79.016 41L75.032 36.008L77.864 32.504L84.536 41H79.016ZM95.4826 41.216C94.0586 41.216 92.7946 40.928 91.6906 40.352C90.5866 39.776 89.7146 38.984 89.0746 37.976C88.4506 36.952 88.1386 35.784 88.1386 34.472C88.1386 33.16 88.4506 32 89.0746 30.992C89.7146 29.984 90.5866 29.2 91.6906 28.64C92.7946 28.064 94.0586 27.776 95.4826 27.776C96.9066 27.776 98.1706 28.064 99.2746 28.64C100.395 29.2 101.267 29.984 101.891 30.992C102.515 32 102.827 33.16 102.827 34.472C102.827 35.784 102.515 36.952 101.891 37.976C101.267 38.984 100.395 39.776 99.2746 40.352C98.1706 40.928 96.9066 41.216 95.4826 41.216ZM95.4826 37.592C96.0106 37.592 96.4746 37.472 96.8746 37.232C97.2906 36.992 97.6186 36.64 97.8586 36.176C98.0986 35.696 98.2186 35.128 98.2186 34.472C98.2186 33.816 98.0986 33.264 97.8586 32.816C97.6186 32.352 97.2906 32 96.8746 31.76C96.4746 31.52 96.0106 31.4 95.4826 31.4C94.9706 31.4 94.5066 31.52 94.0906 31.76C93.6906 32 93.3626 32.352 93.1066 32.816C92.8666 33.264 92.7466 33.816 92.7466 34.472C92.7466 35.128 92.8666 35.696 93.1066 36.176C93.3626 36.64 93.6906 36.992 94.0906 37.232C94.5066 37.472 94.9706 37.592 95.4826 37.592ZM125.483 27.776C126.491 27.776 127.387 27.984 128.171 28.4C128.971 28.8 129.595 29.424 130.043 30.272C130.507 31.12 130.739 32.216 130.739 33.56V41H126.179V34.304C126.179 33.376 126.003 32.704 125.651 32.288C125.299 31.856 124.819 31.64 124.211 31.64C123.779 31.64 123.387 31.744 123.035 31.952C122.683 32.16 122.411 32.48 122.219 32.912C122.027 33.328 121.931 33.872 121.931 34.544V41H117.371V34.304C117.371 33.376 117.195 32.704 116.843 32.288C116.507 31.856 116.027 31.64 115.403 31.64C114.955 31.64 114.555 31.744 114.203 31.952C113.867 32.16 113.595 32.48 113.387 32.912C113.195 33.328 113.099 33.872 113.099 34.544V41H108.539V27.992H112.883V31.616L112.019 30.584C112.499 29.656 113.155 28.96 113.987 28.496C114.819 28.016 115.747 27.776 116.771 27.776C117.939 27.776 118.963 28.08 119.843 28.688C120.739 29.28 121.339 30.208 121.643 31.472L120.155 31.16C120.619 30.104 121.315 29.28 122.243 28.688C123.187 28.08 124.267 27.776 125.483 27.776ZM140.025 36.824L139.953 34.664L150.129 24.2H152.169L144.753 31.976L143.745 33.056L140.025 36.824ZM138.489 41V24.2H140.265V41H138.489ZM150.561 41L143.313 32.648L144.513 31.352L152.673 41H150.561ZM166.36 41V38.216L166.288 37.76V33.104C166.288 32.032 165.984 31.208 165.376 30.632C164.784 30.056 163.896 29.768 162.712 29.768C161.896 29.768 161.12 29.904 160.384 30.176C159.648 30.448 159.024 30.808 158.512 31.256L157.744 29.984C158.384 29.44 159.152 29.024 160.048 28.736C160.944 28.432 161.888 28.28 162.88 28.28C164.512 28.28 165.768 28.688 166.648 29.504C167.544 30.304 167.992 31.528 167.992 33.176V41H166.36ZM162.016 41.12C161.072 41.12 160.248 40.968 159.544 40.664C158.856 40.344 158.328 39.912 157.96 39.368C157.592 38.808 157.408 38.168 157.408 37.448C157.408 36.792 157.56 36.2 157.864 35.672C158.184 35.128 158.696 34.696 159.4 34.376C160.12 34.04 161.08 33.872 162.28 33.872H166.624V35.144H162.328C161.112 35.144 160.264 35.36 159.784 35.792C159.32 36.224 159.088 36.76 159.088 37.4C159.088 38.12 159.368 38.696 159.928 39.128C160.488 39.56 161.272 39.776 162.28 39.776C163.24 39.776 164.064 39.56 164.752 39.128C165.456 38.68 165.968 38.04 166.288 37.208L166.672 38.384C166.352 39.216 165.792 39.88 164.992 40.376C164.208 40.872 163.216 41.12 162.016 41.12ZM191.964 28.28C192.988 28.28 193.876 28.48 194.628 28.88C195.396 29.264 195.988 29.856 196.404 30.656C196.836 31.456 197.052 32.464 197.052 33.68V41H195.348V33.848C195.348 32.52 195.028 31.52 194.388 30.848C193.764 30.16 192.876 29.816 191.724 29.816C190.86 29.816 190.108 30 189.468 30.368C188.844 30.72 188.356 31.24 188.004 31.928C187.668 32.6 187.5 33.416 187.5 34.376V41H185.796V33.848C185.796 32.52 185.476 31.52 184.836 30.848C184.196 30.16 183.3 29.816 182.148 29.816C181.3 29.816 180.556 30 179.916 30.368C179.276 30.72 178.78 31.24 178.428 31.928C178.092 32.6 177.924 33.416 177.924 34.376V41H176.22V28.4H177.852V31.808L177.588 31.208C177.972 30.296 178.588 29.584 179.436 29.072C180.3 28.544 181.316 28.28 182.484 28.28C183.716 28.28 184.764 28.592 185.628 29.216C186.492 29.824 187.052 30.744 187.308 31.976L186.636 31.712C187.004 30.688 187.652 29.864 188.58 29.24C189.524 28.6 190.652 28.28 191.964 28.28ZM211.777 41.12C210.689 41.12 209.705 40.872 208.825 40.376C207.945 39.864 207.241 39.136 206.713 38.192C206.201 37.232 205.945 36.064 205.945 34.688C205.945 33.312 206.201 32.152 206.713 31.208C207.225 30.248 207.921 29.52 208.801 29.024C209.681 28.528 210.673 28.28 211.777 28.28C212.977 28.28 214.049 28.552 214.993 29.096C215.953 29.624 216.705 30.376 217.249 31.352C217.793 32.312 218.065 33.424 218.065 34.688C218.065 35.968 217.793 37.088 217.249 38.048C216.705 39.008 215.953 39.76 214.993 40.304C214.049 40.848 212.977 41.12 211.777 41.12ZM205.273 45.656V28.4H206.905V32.192L206.737 34.712L206.977 37.256V45.656H205.273ZM211.657 39.608C212.553 39.608 213.353 39.408 214.057 39.008C214.761 38.592 215.321 38.016 215.737 37.28C216.153 36.528 216.361 35.664 216.361 34.688C216.361 33.712 216.153 32.856 215.737 32.12C215.321 31.384 214.761 30.808 214.057 30.392C213.353 29.976 212.553 29.768 211.657 29.768C210.761 29.768 209.953 29.976 209.233 30.392C208.529 30.808 207.969 31.384 207.553 32.12C207.153 32.856 206.953 33.712 206.953 34.688C206.953 35.664 207.153 36.528 207.553 37.28C207.969 38.016 208.529 38.592 209.233 39.008C209.953 39.408 210.761 39.608 211.657 39.608ZM230.346 41.12C229.274 41.12 228.338 40.92 227.538 40.52C226.738 40.12 226.114 39.52 225.666 38.72C225.234 37.92 225.018 36.92 225.018 35.72V28.4H226.722V35.528C226.722 36.872 227.05 37.888 227.706 38.576C228.378 39.248 229.314 39.584 230.514 39.584C231.394 39.584 232.154 39.408 232.794 39.056C233.45 38.688 233.946 38.16 234.282 37.472C234.634 36.784 234.81 35.96 234.81 35V28.4H236.514V41H234.882V37.544L235.146 38.168C234.746 39.096 234.122 39.824 233.274 40.352C232.442 40.864 231.466 41.12 230.346 41.12ZM248.248 41.12C247.208 41.12 246.224 40.976 245.296 40.688C244.368 40.384 243.64 40.008 243.112 39.56L243.88 38.216C244.392 38.6 245.048 38.936 245.848 39.224C246.648 39.496 247.488 39.632 248.368 39.632C249.568 39.632 250.432 39.448 250.96 39.08C251.488 38.696 251.752 38.192 251.752 37.568C251.752 37.104 251.6 36.744 251.296 36.488C251.008 36.216 250.624 36.016 250.144 35.888C249.664 35.744 249.128 35.624 248.536 35.528C247.944 35.432 247.352 35.32 246.76 35.192C246.184 35.064 245.656 34.88 245.176 34.64C244.696 34.384 244.304 34.04 244 33.608C243.712 33.176 243.568 32.6 243.568 31.88C243.568 31.192 243.76 30.576 244.144 30.032C244.528 29.488 245.088 29.064 245.824 28.76C246.576 28.44 247.488 28.28 248.56 28.28C249.376 28.28 250.192 28.392 251.008 28.616C251.824 28.824 252.496 29.104 253.024 29.456L252.28 30.824C251.72 30.44 251.12 30.168 250.48 30.008C249.84 29.832 249.2 29.744 248.56 29.744C247.424 29.744 246.584 29.944 246.04 30.344C245.512 30.728 245.248 31.224 245.248 31.832C245.248 32.312 245.392 32.688 245.68 32.96C245.984 33.232 246.376 33.448 246.856 33.608C247.352 33.752 247.888 33.872 248.464 33.968C249.056 34.064 249.64 34.184 250.216 34.328C250.808 34.456 251.344 34.64 251.824 34.88C252.32 35.104 252.712 35.432 253 35.864C253.304 36.28 253.456 36.832 253.456 37.52C253.456 38.256 253.248 38.896 252.832 39.44C252.432 39.968 251.84 40.384 251.056 40.688C250.288 40.976 249.352 41.12 248.248 41.12Z" fill="#2A4B4F"/>
</svg>